<?xml version="1.0" encoding="UTF-8"?>
<!DOCTYPE svg PUBLIC "-//W3C//DTD SVG 1.1//EN" "http://www.w3.org/Graphics/SVG/1.1/DTD/svg11.dtd">
<!-- Creator: CorelDRAW 2020 (64-Bit) -->
<svg xmlns="http://www.w3.org/2000/svg" xml:space="preserve" width="26.6686mm" height="23.416mm" version="1.1" style="shape-rendering:geometricPrecision; text-rendering:geometricPrecision; image-rendering:optimizeQuality; fill-rule:evenodd; clip-rule:evenodd"
viewBox="0 0 2592.15 2276"
 xmlns:xlink="http://www.w3.org/1999/xlink"
 xmlns:xodm="http://www.corel.com/coreldraw/odm/2003">
 <defs>
  <style type="text/css">
   <![CDATA[
    .fil0 {fill:#333333}
    .fil1 {fill:#B3B3B3;fill-rule:nonzero}
    .fil2 {fill:white;fill-rule:nonzero}
   ]]>
  </style>
 </defs>
 <g id="Layer_x0020_1">
  <metadata id="CorelCorpID_0Corel-Layer"/>
  <rect class="fil0" x="190.61" y="226.58" width="2227.67" height="1871.61"/>
  <path class="fil1" d="M484.76 0l1622.63 0c273.93,0 484.76,210.65 484.76,484.77l0 1306.48c0,273.93 -210.65,484.76 -484.76,484.76l-1622.63 0c-273.93,0 -484.76,-210.65 -484.76,-484.76l0 -1306.48c0,-273.94 210.65,-484.77 484.76,-484.77l0 0zm1791.25 1791.46c0,-442.54 0,-864.01 0,-1306.52 0,-84.3 -63.29,-168.6 -168.61,-168.6 -674.35,0 -969.3,0 -1622.63,0 -84.3,0 -168.6,63.28 -168.6,168.6l0 1306.52 0 0c0,84.27 63.28,168.57 168.6,168.57 569.03,0 1053.6,0 1622.63,0 84.3,0 168.61,-63.28 168.61,-168.57l0 0z"/>
  <polygon class="fil2" points="1285.68,1718.58 1285.68,1506.18 2023.12,1506.18 2023.12,1718.58 "/>
  <path class="fil2" d="M1508.58 1064.37c0,16.91 -0.66,31.49 -2,43.79 -1.31,12.26 -2.98,22.55 -5.31,31.17 -2.33,8.29 -5.32,14.95 -8.62,19.9 -3.64,4.65 -7.64,8.32 -12.3,10.28l-745.38 369.55c-8.94,4.66 -16.58,6.66 -23.24,6 -6.62,-0.69 -11.93,-4.33 -15.89,-10.94 -4.33,-6.33 -7.31,-15.93 -8.98,-28.55 -1.64,-12.59 -2.33,-28.84 -2.33,-48.08 0,-26.54 0.37,-47.78 1.35,-63.39 0.98,-15.56 2.98,-27.86 5.31,-36.8 2.65,-9.27 6.29,-15.93 10.94,-19.9 4.3,-4.33 10.62,-7.96 18.26,-11.28l559.28 -262.77 -548.71 -254.76c-10.25,-4.62 -18.55,-8.95 -24.54,-13.61 -6.29,-4.62 -10.94,-11.6 -14.26,-20.87 -2.98,-9.64 -5.31,-22.23 -6.29,-38.15 -0.98,-15.93 -1.35,-37.5 -1.35,-64.71 0,-23.89 0.69,-42.81 2.33,-56.4 1.67,-13.61 4.66,-23.21 8.98,-29.17 3.97,-5.97 9.27,-8.29 15.89,-7.64 6.66,0.33 14.3,2.98 23.24,7.64l746.4 372.52c8.29,3.97 14.91,14.26 19.9,31.17 4.98,16.94 7.31,41.82 7.31,74.99z"/>
 </g>
</svg>
