<?xml version="1.0" encoding="UTF-8"?>
<!DOCTYPE svg PUBLIC "-//W3C//DTD SVG 1.1//EN" "http://www.w3.org/Graphics/SVG/1.1/DTD/svg11.dtd">
<!-- Creator: CorelDRAW 2020 (64-Bit) -->
<svg xmlns="http://www.w3.org/2000/svg" xml:space="preserve" width="61.5327mm" height="60.7794mm" version="1.1" style="shape-rendering:geometricPrecision; text-rendering:geometricPrecision; image-rendering:optimizeQuality; fill-rule:evenodd; clip-rule:evenodd"
viewBox="0 0 6153.22 6077.89"
 xmlns:xlink="http://www.w3.org/1999/xlink"
 xmlns:xodm="http://www.corel.com/coreldraw/odm/2003">
 <defs>
  <style type="text/css">
   <![CDATA[
    .str0 {stroke:black;stroke-width:130;stroke-miterlimit:22.9256}
    .fil1 {fill:black}
    .fil0 {fill:white}
    .fil3 {fill:black;fill-rule:nonzero}
    .fil2 {fill:white;fill-rule:nonzero}
   ]]>
  </style>
 </defs>
 <g id="Layer_x0020_1">
  <metadata id="CorelCorpID_0Corel-Layer"/>
  <g id="_2656425503664">
   <circle class="fil0 str0" cx="3380.09" cy="2773.13" r="2708.13"/>
   <path class="fil1" d="M6043.88 2788.47c0,51.05 -4.52,100.89 -7.62,151.4 -18.76,-47.41 -47.17,-109.13 -53.94,-135.74 -9.89,-40.4 -70.12,-181.05 -70.12,-181.05 0,0 -60.33,-80.32 -100.5,-100.5 -39.94,-20.15 -70.14,-70.43 -140.67,-110.37 -70.43,-40.4 -100.32,-60.33 -160.42,-60.33 -60.56,0 -120.5,-80.56 -191.1,-120.65 -70.43,-39.94 -80.32,-20 -80.32,-20 0,0 80.32,120.5 80.32,150.54 0,30.05 90.22,80.32 181.05,60.17 0,0 60.17,110.6 90.22,140.65 30.05,30.05 -10.13,60.33 -70.12,100.5 -60.33,39.94 -50.3,30.05 -80.81,60.17 -30.05,30.05 -130.39,80.81 -160.67,100.5 -30.05,20.02 -150.54,80.32 -210.71,20.02 -29.5,-29.04 -20.33,-90.22 -40.15,-130.62 -20.15,-40.15 -231.12,-351.52 -331.6,-492.01 -17.52,-24.75 -60.33,-100.89 -90.22,-120.5 -30.05,-20.33 70.43,-20.33 70.43,-20.33 0,0 0,-70.43 -10.13,-120.5 -10.26,-50.3 10.13,-120.5 10.13,-120.5 0,0 -100.5,60.17 -131.01,80.32 -29.89,20.15 -60.17,-39.94 -100.11,-90.45 -40.17,-50.05 -80.56,-110.6 -90.45,-160.8 -10.13,-50.05 50.28,-70.12 50.28,-70.12l90.22 -50.05c0,0 110.6,-20.02 181.05,-10.13 70.12,10.13 180.59,20.15 180.59,20.15 0,0 30.05,-70.45 -10.13,-100.5 -39.94,-30.05 -130.78,-80.32 -170.95,-70.12 -39.94,9.87 20.02,-50.3 70.06,-90.45l-111.22 -20.15c0,0 -101.12,50.28 -131.4,60.33 -30.05,9.89 -82.36,30.05 -122.77,80.32 -39.94,50.3 16.04,120.5 -24.13,140.67 -39.94,20.15 -67.25,30.05 -97.3,39.94 -30.05,10.13 -125.64,0 -125.64,0 -103.83,0 -37.28,94.74 -10.26,128.27l-80.32 -98 -59.55 -140.42c0,0 -85.7,-60.17 -125.87,-80.09 -40.17,-20.15 -163.93,-90.45 -163.93,-90.45l8.63 90.45 116.36 117.76 10.26 2.66 60.56 80.32 -133.65 10.11 0 -79.55c-126.1,-30.51 -93.09,-61.8 -107.27,-71.44 -29.89,-20.02 -99.7,-70.45 -99.7,-70.45 0,0 -118.25,20.15 -148.53,30.28 -30.28,10.13 -38.68,40.17 -98.62,60.17 -60.56,20.15 -87.71,50.3 -107.73,80.32 -20,30.05 -85.46,120.5 -125.25,160.67 -40.4,40.4 -114.89,30.05 -145.01,30.05 -30.28,0 -175.29,-40.17 -175.29,-40.17l0.16 -170.31c0,0 19.53,-95.59 9.64,-125.64l87.97 -14.88 146.8 -30.28 42.97 -30.28 61.8 -80.32c0,0 -69.42,-50.28 -19.38,-120.5 24.13,-33.77 110.78,-40.17 150.93,-70.12 39.94,-30.05 100.71,-50.3 100.71,-50.3 0,0 70.45,-60.17 140.67,-130.6 0,0 50.28,-30.28 110.37,-50.43 0,0 170.95,150.78 201.23,150.78 30.28,0 140.65,-70.12 140.65,-70.12 0,0 30.05,-90.22 20.15,-120.5 -10.13,-30.05 -60.33,-130.62 -60.33,-130.62 0,0 -30.05,50.3 -60.17,90.45 -30.12,40.17 -50.3,90.45 -50.3,90.45 0,0 -140.65,-9.64 -150.54,-39.78 -10.26,-30.28 -30.05,-79.94 -40.39,-109.75 -9.66,-30.28 -90.22,-29.27 -150.23,-9.04 -60.56,20.15 9.64,-108.35 9.64,-108.35 0,0 60.56,-75.8 100.5,-75.8 39.94,0 130.78,-51.46 170.54,-61.33 40.4,-10.13 161.29,-56.06 211.1,-56.06 50.3,0 110.6,21.65 140.88,21.65 30.28,0 150.54,0 150.54,0l210.71 -16.9c0,0 181.05,66.94 120.5,107.27 0,0 70.68,43.43 100.73,73.55 28.18,28.42 101.12,-26.15 142.92,-49.42 751.6,471.55 1254.12,1305.82 1254.12,2257.07l0 -0.16 0.13 -0.05zm-4792.56 -1571.87c0,40.17 -54.8,49.81 0,150.78 70.04,130.6 9.87,191.01 9.87,191.01 0,0 -170.93,120.5 -200.98,140.67 -30.05,20.15 -110.37,130.6 -60.33,100.32 50.28,-30.05 110.37,-60.17 60.33,20.15 -50.28,80.58 -140.65,210.87 -160.67,261.4 -20,50.51 -120.5,170.7 -120.5,231.1 0,60.33 -40.17,181.05 -30.05,231.25 6.85,35.03 -15.4,138.17 -32.92,180.59 13.62,-564.71 203.69,-1085.13 517.56,-1510.85 10.26,1.03 17.67,3.67 17.67,3.67l0 -0.08 0.02 0zm322.71 -385.13c245.67,-226.75 533.66,-407.58 851.14,-529.93 -31.29,40.17 -69.19,81.33 -69.19,81.33 0,0 -70.14,-0.23 -200.98,140.67 -130.39,140.73 -100.34,100.58 -130.39,140.49 -30.05,39.94 -20.15,50.28 -90.6,100.71 -70.04,50.05 -100.32,110.37 -100.32,110.37l-110.53 40.15 -90.22 -40.15c0,0 -80.81,30.28 -70.68,-10.13 2.87,-10.67 7.24,-21.8 11.75,-33.56l0.01 0.05zm1204 234.38l-39.94 -60.17 39.94 -90.37 96.83 38.7 -0.08 -179.35 92.47 -50.06 76.83 110.37 118.25 130.78 -78.46 60.17 -209.24 40.15 -0.08 -106.47 -96.52 106.26 0 -0.01zm1306.03 944.33c23.51,-18.52 100.34,30.05 100.34,30.05 0,0 251.02,50.28 291.19,80.32 40.4,30.28 110.6,50.43 130.78,80.79 20.15,30.05 90.22,120.5 100.11,150.54 10.28,30.05 60.56,140.88 70.68,180.82 10.13,40.17 40.17,140.67 70.12,191.02 30.05,50.43 200.98,271.27 261.15,371.77l181.21 -30.05c0,0 -20.33,90.22 -40.4,120.5 -20,30.05 -80.32,110.37 -110.37,150.54 -30.28,40.17 -70.14,100.5 -130.62,150.54 -60.17,50.05 -60.56,100.32 -90.45,140.65 -30.05,40.15 -70.43,130.6 -70.43,130.6 0,0 20.15,200.98 30.05,241.15 9.87,40.15 -70.14,150.54 -70.14,150.54l-90.6 90.6 -121.12 160.44 9.89 150.54c0,0 -91.46,70.68 -141.89,110.6 -49.81,39.94 -42.03,70.12 -82.21,110.6 -39.94,39.94 -197.1,110.37 -237.25,120.5 -40.17,10.13 -261.77,40.17 -261.77,40.17l0 -90.22 -4.52 -100.5c0,0 -30.51,-120.5 -60.79,-160.67 -30.28,-40.15 -17.13,-100.71 -67.33,-150.78 -50.3,-50.3 -68.8,-90.22 -78.85,-120.65 -10.13,-30.05 10.9,-120.26 10.9,-120.26 0,0 40.54,-110.6 60.56,-150.78 20.15,-40.15 0.23,-100.32 -20,-140.65 -20.23,-40.33 -29.89,-140.88 -29.89,-170.7 0,-30.05 -80.81,-80.58 -110.78,-110.6 -30.05,-30.05 -20,-70.45 -20,-110.22 0,-40.56 -30.05,-130.78 -20.15,-201.21 10.13,-70.14 -90.22,-20.15 -150.54,0 -60.33,20.15 -100.32,-20.15 -100.32,-80.58 0,-60.4 -110.37,-9.87 -180.82,30.05 -70.68,40.15 -150.78,40.15 -231.51,70.43 -80.09,30.05 -120.11,-30.05 -120.11,-30.05 0,0 -70.68,-60.17 -120.5,-90.45 -50.43,-30.05 -100.71,-90.22 -141.04,-140.42 -39.94,-50.43 -140.65,-201.23 -150.31,-261.15 -10.13,-60.56 0,-100.89 0,-171.16 0,-70.3 0,-110.37 9.89,-160.67 10.13,-50.28 40.15,-110.6 70.43,-160.8 30.05,-50.3 140.67,-110.37 170.54,-130.62 30.05,-20 100.5,-80.09 100.5,-120.5 0,-40.17 40.4,-60.17 60.17,-100.5 20.31,-40.17 90.6,-140.42 181.05,-100.34 0,0 80.09,-9.87 110.22,-20 30.12,-10.13 110.37,-39.94 150.23,-60.17 40.15,-20.15 140.26,-29.66 140.26,-29.66 0,0 79.08,31.52 109.13,31.52 30.05,0 128.14,-17.52 128.14,-17.52 0,0 45.29,145.71 45.29,175.91 0,30.28 30.05,60.17 80.56,80.32 49.58,20.46 280.83,70.92 381.33,-9.56l0 -0.16 -0.01 0.09zm1155.19 1969.05c0,30.05 -10.13,110.6 -20.15,150.78 -10.51,40.17 -30.28,110.6 -40.17,150.31 -10.13,40.4 -60.33,120.65 -90.22,140.88 -30.05,20.15 -80.56,80.56 -110.37,90.43 -30.05,10.13 -50.43,-70.43 -40.39,-110.6 10.26,-40.17 60.33,-150.54 60.33,-150.54 0,0 10.13,-60.17 20,-100.5 10.28,-39.94 130.78,-90.22 130.78,-90.22l80.58 -150.78c-0.47,-0.23 9.64,40.4 9.64,70.12l0 0.08 -0.03 0.04zm-4457.71 -598.5c13,3.26 31.52,12.76 57.69,36.02 37.9,32.94 60.33,49.81 110.6,70.14 50.05,20.31 70.12,50.05 130.6,80.32 60.33,30.28 40.4,10.26 120.5,100.5 80.56,90.22 70.43,90.22 90.43,140.65 20.02,50.43 50.3,100.34 70.45,130.78 20.15,30.05 80.32,50.05 110.37,70.12 30.05,20.15 80.32,40.17 110.37,40.17 30.28,0 120.65,90.45 170.93,100.32 50.3,10.28 50.3,110.78 50.3,110.78l-50.3 140.42 -40.4 150.54 40.4 120.5c0,0 -60.56,50.43 -100.32,50.43 -37.05,0 -49.66,23.51 -90.22,12.38 -383.04,-357.67 -660.84,-825.64 -781.33,-1354.23l-0.08 0.16 0.02 0.01zm2093.22 -2426.76l0 5.53 3.28 -4.11 -3.28 -1.4 0 -0.02z"/>
  </g>
  <g id="_2656425504528">
   <path class="fil2" d="M1440.56 3135.81c-10.82,2.31 -27.87,7.6 -38,11.74 -32.7,12.9 -105.02,49.75 -135.2,68.63 -38,23.72 -54.58,29.25 -85.89,29.02 -17.52,-0.23 -30.16,-2.08 -52.51,-7.6 -53.44,-13.13 -83.6,-16.82 -123.68,-15.65 -48.59,1.38 -73.01,8.98 -110.55,33.63 -34.55,22.56 -84.07,80.36 -119.53,139.1 -10.59,17.5 -14.97,22.35 -30.86,34.31 -33.17,24.63 -35.92,25.57 -82.23,27.41 -42.38,1.84 -58.74,3.92 -88.22,11.5 -78.31,19.8 -145.56,64.26 -201.52,132.66 -17.96,22.11 -44.46,63.1 -62.4,96.95 -8.98,16.82 -19.57,35.48 -23.51,41.45 -12.2,17.73 -43.29,46.98 -63.1,58.97 -29.48,17.96 -51.34,35.23 -77.14,61.26 -46.51,46.28 -73.92,98.09 -87.73,164.9 -6.67,32.94 -8.28,93.75 -3.45,135.41 4.15,36.39 4.62,55.5 1.38,70.47 -1.38,5.76 -9.68,24.87 -18.43,42.62 -34.78,69.33 -39.61,125.5 -19.13,222 7.14,33.38 8.3,43.53 9.21,80.83 1.38,48.82 -1.4,72.78 -14.04,123.91 -12.67,51.58 -14.04,61.02 -14.04,102.94 0,54.12 6.91,84.51 29.48,128.97 22.11,44.23 37.53,61.26 302.15,330.7 149.71,152.23 169.75,175.25 180.55,207.51 3.92,11.74 4.85,19.8 4.85,47.68 0.23,101.1 31.77,184.24 95.34,250.57 44.9,47.21 100.19,81.29 166.04,102.94 43.76,14.28 75.09,20.04 138.63,25.57 84.07,7.14 134.73,24.63 183.56,62.87 66.78,52.51 102.03,72.99 160.3,93.26 53.21,18.43 99.02,25.57 163.52,25.57 67.7,0 118.36,-8.52 179.41,-29.72 55.96,-19.57 90.97,-37.77 155.22,-81.06 93.75,-63.1 140.03,-77.84 225.71,-71.63 115.61,8.28 214.18,-25.57 291.33,-100.4 72.55,-70.47 119.76,-164.43 144.16,-287.41 10.36,-51.83 24.63,-77.16 55.96,-98.58 88.9,-60.79 176.19,-138.88 266.69,-237.44 86.61,-94.66 124.14,-144.63 151.76,-202.43 40.54,-84.51 52.04,-168.58 40.54,-297.09 -3.24,-34.08 -2.54,-62.4 4.83,-236.74 3.69,-85.21 0.91,-108.94 -19.34,-153.61 -12.2,-27.18 -22.58,-59.18 -28.34,-86.36 -3.45,-16.82 -4.15,-33.17 -4.38,-114 -0.23,-106.39 -2.31,-129.88 -16.35,-185.17 -12.2,-47.89 -32.47,-90.72 -58.27,-123.21 -18.66,-23.26 -51.36,-52.97 -76.93,-69.56 -12.9,-8.52 -27.62,-17.96 -32.7,-21.41 -14.04,-9.21 -51.13,-45.84 -62.19,-61.26 -5.53,-7.6 -15.65,-24.63 -22.79,-37.53 -21.18,-38.91 -35.01,-57.57 -63.33,-85.68 -51.36,-51.34 -99.72,-75.3 -199.44,-99.02 -61.82,-14.84 -132.48,-20.6 -172.27,-73.46 -8.98,-12.2 -26.94,-32.47 -39.84,-45.14 -100.4,-99.95 -234.69,-127.6 -405.09,-83.84 -34.55,8.98 -66.11,11.29 -84.28,5.99 -6.91,-2.08 -18.43,-7.6 -25.57,-12.43 -57.57,-39.14 -64.48,-42.85 -94.66,-51.6 -24.4,-6.91 -67.95,-8.07 -93.73,-2.31l0 0 0.04 0z"/>
   <path class="fil3" d="M1440.56 3135.81c-10.82,2.31 -27.87,7.6 -38,11.74 -32.7,12.9 -105.02,49.75 -135.2,68.63 -38,23.72 -54.58,29.25 -85.89,29.02 -17.52,-0.23 -30.16,-2.08 -52.51,-7.6 -53.44,-13.13 -83.6,-16.82 -123.68,-15.65 -48.59,1.38 -73.01,8.98 -110.55,33.63 -34.55,22.56 -84.07,80.36 -119.53,139.1 -10.59,17.5 -14.97,22.35 -30.86,34.31 -33.17,24.63 -35.92,25.57 -82.23,27.41 -42.38,1.84 -58.74,3.92 -88.22,11.5 -78.31,19.8 -145.56,64.26 -201.52,132.66 -17.96,22.11 -44.46,63.1 -62.4,96.95 -8.98,16.82 -19.57,35.48 -23.51,41.45 -12.2,17.73 -43.29,46.98 -63.1,58.97 -29.48,17.96 -51.34,35.23 -77.14,61.26 -46.51,46.28 -73.92,98.09 -87.73,164.9 -6.67,32.94 -8.28,93.75 -3.45,135.41 4.15,36.39 4.62,55.5 1.38,70.47 -1.38,5.76 -9.68,24.87 -18.43,42.62 -34.78,69.33 -39.61,125.5 -19.13,222 7.14,33.38 8.3,43.53 9.21,80.83 1.38,48.82 -1.4,72.78 -14.04,123.91 -12.67,51.58 -14.04,61.02 -14.04,102.94 0,54.12 6.91,84.51 29.48,128.97 22.11,44.23 37.53,61.26 302.15,330.7 149.71,152.23 169.75,175.25 180.55,207.51 3.92,11.74 4.85,19.8 4.85,47.68 0.23,101.1 31.77,184.24 95.34,250.57 44.9,47.21 100.19,81.29 166.04,102.94 43.76,14.28 75.09,20.04 138.63,25.57 84.07,7.14 134.73,24.63 183.56,62.87 66.78,52.51 102.03,72.99 160.3,93.26 53.21,18.43 99.02,25.57 163.52,25.57 67.7,0 118.36,-8.52 179.41,-29.72 55.96,-19.57 90.97,-37.77 155.22,-81.06 93.75,-63.1 140.03,-77.84 225.71,-71.63 115.61,8.28 214.18,-25.57 291.33,-100.4 72.55,-70.47 119.76,-164.43 144.16,-287.41 10.36,-51.83 24.63,-77.16 55.96,-98.58 88.9,-60.79 176.19,-138.88 266.69,-237.44 86.61,-94.66 124.14,-144.63 151.76,-202.43 40.54,-84.51 52.04,-168.58 40.54,-297.09 -3.24,-34.08 -2.54,-62.4 4.83,-236.74 3.69,-85.21 0.91,-108.94 -19.34,-153.61 -12.2,-27.18 -22.58,-59.18 -28.34,-86.36 -3.45,-16.82 -4.15,-33.17 -4.38,-114 -0.23,-106.39 -2.31,-129.88 -16.35,-185.17 -12.2,-47.89 -32.47,-90.72 -58.27,-123.21 -18.66,-23.26 -51.36,-52.97 -76.93,-69.56 -12.9,-8.52 -27.62,-17.96 -32.7,-21.41 -14.04,-9.21 -51.13,-45.84 -62.19,-61.26 -5.53,-7.6 -15.65,-24.63 -22.79,-37.53 -21.18,-38.91 -35.01,-57.57 -63.33,-85.68 -51.36,-51.34 -99.72,-75.3 -199.44,-99.02 -82.46,-19.8 -97.18,-23.72 -114.93,-30.16 -27.87,-10.13 -38.46,-18.19 -57.36,-43.29 -8.98,-12.2 -26.94,-32.47 -39.84,-45.14 -100.4,-99.95 -234.69,-127.6 -405.09,-83.84 -34.55,8.98 -66.11,11.29 -84.28,5.99 -6.91,-2.08 -18.43,-7.6 -25.57,-12.43 -57.57,-39.14 -64.48,-42.85 -94.66,-51.6 -24.4,-6.91 -67.95,-8.07 -93.73,-2.31l0 0 0.06 -0.01zm48.59 156.83c6.91,1.16 20.27,5.99 29.72,10.59 30.86,14.97 64.71,55.05 78.31,92.82l5.3 14.51 -1.38 114.23c-0.91,62.87 -2.77,159.6 -3.92,214.63 -1.14,55.05 -3.22,146.7 -4.6,203.83 -1.16,56.87 -3.92,173.64 -5.99,259.09 -1.84,85.45 -3.69,198.51 -3.92,251.02 -0.47,90.74 -0.23,98.34 5.99,150.39 3.45,30.16 6.23,55.96 6.23,57.13 0,1.14 3.92,2.08 8.75,2.08l8.98 0 8.28 -60.58c4.62,-33.17 13.13,-109.17 18.89,-168.58 23.72,-249.41 67.72,-724.29 84.07,-906.23 5.06,-57.57 10.36,-110.08 11.74,-116.31 7.37,-38 32.02,-60.35 76,-69.09 27.87,-5.76 82.23,-6.91 107.56,-2.54 65.41,11.52 106.16,40.31 142.78,100.89 48.59,80.6 117.45,115.14 246.89,123.89 61.95,4.38 87.06,9.68 118.15,26.01 41.68,21.41 82.67,73.69 94.87,121.14 8.52,33.63 5.76,67.95 -8.98,105.72 -4.36,11.06 -25.57,57.36 -47.45,102.94 -93.05,194.36 -187.24,394.97 -379.76,808.1 -95.57,204.97 -121.83,263.24 -128.04,284.66 -4.36,14.74 -8.07,27.85 -8.07,29.25 0,2.31 17.75,11.29 19.36,9.68 1.61,-1.61 34.99,-60.58 44.46,-78.07 5.3,-9.45 51.58,-98.58 103.17,-198.07 303.99,-585.66 439.19,-844.04 451.63,-862.47 8.28,-12.67 23.72,-30.63 52.97,-61.95l19.13 -20.5 24.87 22.79c54.35,49.97 76.23,72.99 83.6,88.9 9.68,20.5 15.89,64.03 17.73,120.67 2.08,65.41 -4.13,114 -21.41,166.74 -12.2,37.3 -26.5,64.73 -71.4,137.02 -66.55,107.09 -224.78,373.09 -240.66,404.65 -7.37,14.51 -27.41,65.64 -27.41,69.77 0,1.14 4.38,5.06 9.89,8.52 7.6,4.85 10.38,5.76 12.2,3.45 1.61,-1.61 85.89,-122.28 187.71,-268.54l184.93 -266 10.13 31.09c10.36,30.63 10.36,31.09 11.29,70 0.91,32.7 0.23,44.23 -3.69,67.72 -10.59,62.4 -37.77,122.75 -81.99,181.95 -18.87,25.33 -25.1,32.47 -69.33,81.53 -41.92,46.3 -84.98,97.41 -165.81,198.07 -67.72,84.07 -72.78,91.65 -76.23,116.31l-1.4 10.36 17.05 -11.75c50.9,-34.99 98.11,-78.52 188.83,-172.71 70.47,-73.01 106.16,-107.77 143.71,-138.63 24.4,-20.27 44.67,-35.48 46.07,-34.31 2.08,2.31 -7.37,83.6 -11.29,96.73 -8.52,28.11 -47.21,108.7 -74.16,154.54 -55.96,94.89 -130.12,180.34 -215.79,248.73 -12.43,9.89 -40.52,30.63 -62.19,46.07 -113.77,80.36 -213.72,153.61 -432.29,316.89 -198.74,148.54 -233.52,174.11 -232.15,170.42 0.7,-1.63 17.96,-33.4 38.46,-70.7 20.25,-37.3 37.09,-68.39 37.09,-69.09 0,-0.91 -3.24,-3.45 -6.91,-5.53 -6.91,-4.15 -6.91,-4.15 -12.43,2.31 -2.99,3.45 -48.59,59.88 -101.56,125.05 -52.74,65.17 -97.18,118.61 -98.79,118.61 -3.45,0 -22.11,-11.06 -22.11,-13.36 0,-0.91 22.35,-56.87 49.73,-124.36 27.41,-67.25 67.95,-166.97 89.83,-221.09 22.11,-54.35 39.61,-99.49 38.91,-100.4 -1.38,-2.31 -14.74,-8.07 -15.89,-6.91 -0.23,0.47 -14.51,23.72 -31.33,51.6 -46.51,76.91 -51.36,86.36 -152.46,305.16 -27.87,60.09 -53.65,113.53 -57.13,118.83 -27.62,39.84 -79.92,59.88 -125.5,48.12 -43.06,-11.29 -55.73,-23.26 -115.14,-110.08 -13.6,-19.8 -26.01,-36.16 -27.41,-36.16 -1.38,0 -5.74,2.08 -9.68,4.38l-6.91 4.36 5.53 31.56c4.85,26.71 5.3,31.77 2.52,33.62 -1.84,1.14 -3.92,2.08 -4.6,2.08 -0.91,0 -56.89,-87.5 -124.38,-194.59 -67.72,-106.86 -123.89,-194.38 -124.82,-194.61 -2.52,0 -26.73,14.51 -26.94,16.12 0,0.7 49.52,88.22 110.31,194.61 60.58,106.39 109.85,193.68 109.61,194.15 -0.23,0.23 -14.97,-9.21 -32.47,-21.18 -29.02,-19.8 -37.77,-27.87 -94.19,-84.51 -162.82,-163.52 -311.6,-288.11 -634.01,-530.38 -72.78,-54.58 -123.21,-101.33 -170.66,-157.99 -70,-83.6 -143.48,-201.96 -155.92,-251.02 -5.99,-23.26 -3.69,-55.96 5.53,-79.45 7.37,-18.43 20.25,-40.75 24.63,-41.68 1.38,-0.23 23.96,23.96 50.43,53.89 26.5,29.95 97.88,110.78 158.9,179.41l110.55 124.59 6.46 -3.22c3.45,-1.84 6.44,-3.92 6.44,-4.62 0,-0.7 -11.29,-23.72 -25.1,-51.11 -22.35,-43.99 -32.24,-60.35 -85.21,-138.63 -155.68,-230.77 -212.11,-315.75 -220.86,-332.78 -15.89,-31.77 -29.95,-84.07 -27.41,-102.73 1.4,-11.06 21.88,-55.05 25.57,-55.05 6.67,0.23 49.29,23.26 55.73,30.16 10.36,11.52 80.6,109.63 220.86,309.52 30.16,43.06 62.87,88.67 72.31,101.33 16.58,22.11 52.97,61.95 54.82,60.35 1.38,-1.61 -15.21,-54.12 -27.41,-86.82 -37.3,-99.72 -102.03,-211.88 -187.71,-325.2 -61.26,-81.06 -106.16,-170.66 -128.51,-255.64 -13.81,-53.19 -18.19,-81.97 -18.19,-120.44 0,-29.02 0.7,-37.53 5.06,-52.97 12.43,-43.06 37.53,-72.08 85.45,-99.02 83.37,-46.51 138.42,-104.34 180.34,-190 30.4,-62.19 52.97,-86.59 100.87,-109.17 34.78,-16.35 84.75,-28.55 135.65,-32.7 16.35,-1.38 19.11,-0.91 26.24,3.45 12.43,7.6 32.7,30.86 39.14,44.46 6.23,13.35 59.88,174.58 115.61,347.06 19.8,61.26 41.92,126.43 49.06,144.63l12.9 33.17 7.14 -1.61c16.58,-3.69 16.82,-3.92 14.74,-18.64 -14.97,-108.47 -13.81,-102.26 -61.95,-312.74 -45.14,-196.69 -50.67,-223.86 -50.67,-245.96 0,-45.6 21.65,-92.35 61.02,-131.75 21.65,-21.88 45.84,-37.53 71.38,-46.51 17.26,-5.99 21.18,-6.46 64.48,-7.14 69.33,-1.14 96.5,4.38 117,24.4 22.11,21.41 25.1,32.7 37.3,142.78 13.11,114.93 20.72,175.49 50.67,403.48 26.03,196.69 26.03,196.22 40.54,207.05 3.92,2.99 7.6,4.85 8.07,4.15 2.99,-2.77 3.69,-89.6 1.14,-143.25 -1.38,-32.94 -6.23,-143.95 -10.59,-246.42 -4.6,-102.73 -9.68,-217.17 -11.5,-254.49 -4.15,-84.51 -4.15,-107.56 0,-127.34 9.68,-45.6 31.56,-68.39 87.97,-91.21 56.19,-22.79 87.29,-29.02 118.38,-23.26l0 -0.02 0.06 -0.09zm-724.52 2262.01c6.46,3.22 16.82,11.5 23.02,18.19 12.9,13.81 48.14,59.65 45.84,59.65 -3.69,0 -168.81,-74.62 -167.65,-75.77 3.01,-3.24 49.75,-9.21 67.72,-8.52 15.65,0.47 21.88,1.84 31.09,6.46l0 0 -0.02 -0.01zm1386.18 18.64c3.69,2.75 2.99,5.06 -11.06,30.63 -8.28,15.21 -15.21,28.34 -15.21,29.02 0,0.7 19.36,-6.67 43.29,-16.58 23.72,-9.68 47.45,-19.36 52.74,-21.41l9.45 -3.69 4.85 8.07c2.75,4.36 4.83,8.98 4.83,9.89 0,0.91 -39.61,20.97 -87.97,44.46 -81.06,39.14 -88.22,43.06 -87.52,47.89 0.23,2.99 0.93,5.99 1.63,6.46 0.47,0.47 16.82,-1.14 36.16,-3.92 48.14,-6.67 47.68,-6.67 37.09,2.77 -20.5,18.19 -46.75,32.24 -74.62,39.84 -22.79,6.46 -84.75,5.99 -118.36,-1.14 -13.81,-2.77 -25.57,-5.53 -26.03,-5.76 -0.7,-0.91 223.17,-169.05 225.47,-169.26 0.7,-0.23 2.99,1.14 5.3,2.75l0 0 -0.04 -0.02zm-1414.97 59.88c9.45,3.22 33.63,10.59 53.65,16.58 60.11,17.5 87.06,28.55 115.63,47.89 13.11,8.98 42.6,35.24 42.6,38.23 0,0.7 -36.85,1.4 -81.76,1.4 -44.9,0 -81.74,-0.47 -81.53,-1.16 0,-0.7 7.84,-7.84 17.26,-15.89 9.45,-8.07 16.35,-15.42 15.42,-16.35 -0.91,-0.91 -28.79,-13.81 -61.72,-28.79 -32.94,-14.97 -64.24,-29.23 -69.56,-32.01l-9.68 -4.83 5.97 -13.13 5.76 -13.13 15.42 7.6c8.28,4.15 23.02,10.38 32.47,13.6l0 0 0.07 -0.01z"/>
  </g>
 </g>
</svg>
