<?xml version="1.0" encoding="UTF-8"?>
<!DOCTYPE svg PUBLIC "-//W3C//DTD SVG 1.1//EN" "http://www.w3.org/Graphics/SVG/1.1/DTD/svg11.dtd">
<!-- Creator: CorelDRAW -->
<svg xmlns="http://www.w3.org/2000/svg" xml:space="preserve" width="3.6426mm" height="3.5932mm" version="1.1" style="shape-rendering:geometricPrecision; text-rendering:geometricPrecision; image-rendering:optimizeQuality; fill-rule:evenodd; clip-rule:evenodd"
viewBox="0 0 250.76 247.36"
 xmlns:xlink="http://www.w3.org/1999/xlink"
 xmlns:xodm="http://www.corel.com/coreldraw/odm/2003">
 <defs>
  <style type="text/css">
   <![CDATA[
    .fil0 {fill:#D9925F;fill-rule:nonzero}
    .fil2 {fill:#FA6D62;fill-rule:nonzero}
    .fil1 {fill:#FFD58C;fill-rule:nonzero}
   ]]>
  </style>
 </defs>
 <g id="Layer_x0020_1">
  <metadata id="CorelCorpID_0Corel-Layer"/>
  <polygon class="fil0" points="171.46,105.06 145.7,79.3 225,0 250.76,25.76 "/>
  <path class="fil1" d="M126.4 247.36c0,-0.01 -0.01,-0.01 -0.01,-0.01 -1.51,0 -3.02,-0.3 -4.42,-0.87 -68.18,-24.53 -115.86,-86.64 -121.92,-158.84 -0.03,-0.33 -0.04,-0.66 -0.04,-0.99 0,-6.57 5.33,-11.9 11.9,-11.9 0.88,0 1.76,0.1 2.62,0.29 9.44,2.22 19.17,3.37 28.89,3.37 21,0 41.68,-5.29 60.1,-15.35l0.17 -0.09 20.51 -11.3c1.76,-0.97 3.73,-1.48 5.73,-1.48 2.84,0 5.58,1.01 7.73,2.85l66.89 57.1c2.64,2.25 4.16,5.55 4.16,9.02 0,1.66 -0.35,3.3 -1.03,4.82 -0.19,0.43 -5.8,12.63 -9.9,21.55l-4.21 9.16c-14.44,32.66 -34.32,62.79 -58.58,89 -2.22,2.34 -5.32,3.66 -8.56,3.66 0,0 -0.01,0 -0.01,0l-0.01 0z"/>
  <path class="fil2" d="M202.49 135.95l-82.54 -82.54 25.94 -12.97c4.08,-2.03 8.58,-3.1 13.13,-3.1 7.79,0 15.26,3.1 20.76,8.6l30.18 30.19c5.49,5.49 8.59,12.96 8.59,20.75 0,4.56 -1.07,9.06 -3.1,13.13l-12.97 25.95z"/>
  <path class="fil0" d="M52.39 201.26c22.15,-16.58 41.45,-36.83 56.91,-59.76 -27.89,11.6 -57.8,17.79 -87.97,18.13 8.24,15.3 18.75,29.35 31.06,41.62l0 0.01z"/>
 </g>
</svg>
