<?xml version="1.0" encoding="UTF-8"?>
<!DOCTYPE svg PUBLIC "-//W3C//DTD SVG 1.1//EN" "http://www.w3.org/Graphics/SVG/1.1/DTD/svg11.dtd">
<svg xmlns="http://www.w3.org/2000/svg" xml:space="preserve" width="82.9312mm" height="71.8206mm" version="1.1" style="shape-rendering:geometricPrecision; text-rendering:geometricPrecision; image-rendering:optimizeQuality; fill-rule:evenodd; clip-rule:evenodd"
viewBox="0 0 7073.84 6126.13"
 xmlns:xlink="http://www.w3.org/1999/xlink">
 <defs>
  <style type="text/css">
   <![CDATA[
    .fil0 {fill:lightgrey}
   ]]>
  </style>
 </defs>
 <g id="Layer_x0020_1">
  <metadata id="ID_0-Layer"/>
  <path class="fil0" d="M3536.92 6126.13l1768.46 -3063.07 1768.46 -3063.07 -3536.92 0 -3536.92 0 1768.46 3063.07 1768.46 3063.07zm949.53 -3463.27c0,124.3 -23.01,234.79 -69.05,332.39 -46.04,96.68 -110.49,178.62 -195.2,244.92 -84.7,66.29 -185.06,116.93 -302,151 -116.93,34.07 -245.84,51.56 -385.79,51.56 -86.55,0 -168.5,-6.45 -246.76,-20.26 -78.26,-12.89 -148.24,-29.46 -210.85,-50.64 -61.69,-20.25 -114.17,-41.43 -157.45,-63.53 -43.27,-22.1 -74.58,-42.35 -93.91,-59.84 -20.26,-17.49 -34.99,-43.28 -43.27,-75.51 -9.21,-32.23 -13.81,-76.42 -13.81,-132.59 0,-34.07 1.83,-62.61 5.52,-85.62 3.68,-23.94 8.29,-42.36 12.89,-57.09 5.53,-14.73 13.82,-24.86 23.02,-31.3 10.12,-6.45 21.18,-9.21 34.07,-9.21 19.34,0 48.8,11.98 87.47,36.83 38.67,23.94 86.54,50.64 142.71,79.18 56.17,28.55 123.38,55.25 200.72,79.19 77.34,24.86 165.73,36.82 266.09,36.82 75.5,0 143.63,-8.28 204.4,-24.86 61.7,-15.65 114.17,-39.6 159.29,-71.82 45.11,-31.3 79.18,-71.81 104.04,-120.61 23.94,-48.8 35.91,-106.81 35.91,-174.02 0,-68.14 -17.49,-126.14 -52.48,-172.17 -34.98,-46.96 -81.02,-88.39 -138.11,-124.3 -58.01,-35.91 -122.46,-68.14 -194.27,-95.76 -71.82,-27.62 -145.48,-57.09 -221.9,-87.47 -75.5,-31.3 -150.08,-65.37 -222.81,-104.04 -72.74,-38.67 -137.19,-85.63 -195.2,-141.8 -57.08,-56.16 -103.12,-122.45 -138.11,-199.8 -34.99,-77.34 -52.48,-169.41 -52.48,-278.06 0,-94.83 18.42,-185.99 55.25,-273.46 36.82,-87.47 92.07,-163.89 165.73,-229.26 74.58,-65.37 166.65,-118.78 277.14,-158.37 110.49,-39.59 239.39,-58.92 387.63,-58.92 64.45,0 128.9,5.52 194.27,16.57 64.46,11.05 122.46,25.78 174.95,42.35 52.48,16.57 96.68,34.99 133.51,54.33 36.82,20.26 65.37,36.83 83.79,52.48 19.33,14.73 31.3,27.62 37.74,37.74 6.45,11.05 11.05,23.02 13.82,36.83 2.76,12.89 5.52,29.46 8.28,48.8 2.76,20.26 3.68,44.2 3.68,72.74 0,30.38 -0.92,57.08 -3.68,79.18 -2.76,22.1 -7.37,40.52 -13.81,54.33 -6.45,14.73 -13.81,24.86 -23.02,31.3 -9.2,6.44 -19.34,9.2 -29.46,9.2 -16.57,0 -39.6,-10.12 -70.9,-30.38 -30.38,-19.34 -69.97,-40.51 -118.77,-63.53 -48.81,-23.02 -105.89,-44.19 -171.26,-63.53 -65.37,-20.26 -140.88,-30.38 -225.58,-30.38 -75.51,0 -142.72,8.28 -199.8,25.78 -58.01,16.57 -104.97,40.52 -141.8,71.82 -36.82,31.3 -65.37,68.14 -83.79,111.41 -19.33,42.35 -28.54,89.32 -28.54,139.04 0,69.97 18.42,128.9 54.33,176.78 35.91,47.88 81.95,89.31 139.95,125.22 57.09,35.91 123.38,68.14 197.04,97.6 73.66,28.55 148.24,58.01 224.67,88.39 76.42,31.3 151.92,65.37 226.5,103.12 74.58,37.74 140.87,83.79 197.96,137.18 58.01,54.33 104.05,118.78 139.04,194.28 34.98,75.5 52.48,165.73 52.48,269.77z"/>
 </g>
</svg>
