<?xml version="1.0" encoding="UTF-8"?>
<!DOCTYPE svg PUBLIC "-//W3C//DTD SVG 1.1//EN" "http://www.w3.org/Graphics/SVG/1.1/DTD/svg11.dtd">
<!-- Creator: CorelDRAW 2020 (64-Bit) -->
<svg xmlns="http://www.w3.org/2000/svg" xml:space="preserve" width="80.0543mm" height="82.2223mm" version="1.1" style="shape-rendering:geometricPrecision; text-rendering:geometricPrecision; image-rendering:optimizeQuality; fill-rule:evenodd; clip-rule:evenodd"
viewBox="0 0 3134.4 3219.29"
 xmlns:xlink="http://www.w3.org/1999/xlink"
 xmlns:xodm="http://www.corel.com/coreldraw/odm/2003">
 <defs>
  <style type="text/css">
   <![CDATA[
    .fil0 {fill:#1D1D1F;fill-rule:nonzero}
   ]]>
  </style>
 </defs>
 <g id="Layer_x0020_1">
  <metadata id="CorelCorpID_0Corel-Layer"/>
  <rect class="fil0" x="1070.04" y="1380.14" width="94.31" height="94.31"/>
  <rect class="fil0" x="1384.42" y="1380.14" width="94.31" height="94.31"/>
  <rect class="fil0" x="1227.23" y="1380.14" width="94.31" height="94.31"/>
  <path class="fil0" d="M1187.14 56.04l24.7 91.02c22.74,-6.17 45.65,-11.65 68.67,-16.74 -169.91,141.52 -311.23,391.27 -399.56,714.14l-579.68 0c180.25,-308.44 468.12,-550.87 823.13,-670.79l-30.19 -89.35c-654.47,221.08 -1094.2,834.06 -1094.2,1525.33 0,429.95 167.44,834.17 471.45,1138.2 304.03,304.02 708.24,471.45 1138.19,471.45l47.16 0 0 -3219.29 -47.16 0c-143.32,0 -285.47,18.85 -422.51,56.04zm375.35 41.55l0 746.87 -583.3 0c122.54,-426.11 342.26,-713.44 583.3,-746.87zm-778.88 1559.22c3.17,218.65 28.36,429.94 73.46,623.71l-605.94 0c-93.75,-189.08 -149.14,-400.39 -156.01,-623.71l688.48 0zm317.22 1036.64c-48.06,-96.35 -88.85,-203.47 -121.96,-318.62l583.63 0 0 746.96c-172.02,-23.24 -334.45,-173.27 -461.67,-428.35zm461.67 -412.93l-608.57 0c-46.63,-192.42 -72.72,-403.99 -75.99,-623.71l684.56 0 0 623.71zm-1260.35 94.31l578.84 0c35.92,130.68 81.27,252.1 135.44,360.71 76.02,152.43 165.22,271.29 263.03,353.11 -415.7,-92.74 -767.53,-356.71 -977.31,-713.81zm1260.35 -812.34l-684.59 0c1.62,-107.61 8.8,-214.42 21.39,-318.15l-93.63 -11.37c-13.05,107.47 -20.46,218.1 -22.09,329.52l-688.45 0c6.82,-221.31 61.45,-433.14 155.45,-623.71l606.58 0c-14.83,63.98 -27.7,130.43 -38.36,199.21l93.2 14.46c11.47,-74.01 25.63,-145.37 42.21,-213.66l608.29 0 0 623.71 0.01 0z"/>
  <path class="fil0" d="M293.79 2247.28l84.85 -41.19c-69.18,-142.51 -112.62,-294.83 -129.1,-452.71l-93.81 9.79c17.63,168.83 64.08,331.7 138.07,484.11z"/>
  <rect class="fil0" x="1782.55" y="7.01" width="94.31" height="436.3"/>
  <path class="fil0" d="M2057.5 7.01l-65.35 65.35 0 305.58 65.35 65.34 173.21 0 65.35 -65.35 0 -305.58 -65.36 -65.34 -173.2 0zm144.24 331.86l-10.1 10.1 -95.07 0 -10.1 -10.1 0 -227.44 10.1 -10.1 95.08 0 10.1 10.1 0 227.44z"/>
  <rect class="fil0" x="3040.09" y="1081.92" width="94.31" height="436.3"/>
  <rect class="fil0" x="2201.75" y="1081.92" width="94.31" height="436.3"/>
  <rect class="fil0" x="2830.52" y="543" width="94.31" height="436.3"/>
  <path class="fil0" d="M2021.09 979.26l65.36 -65.35 0 -305.56 -65.36 -65.35 -173.19 0 -65.35 65.35 0 305.57 65.35 65.35 173.18 -0 0 0zm-144.23 -331.85l10.1 -10.1 95.07 0 10.1 10.1 0 227.44 -10.1 10.1 -95.07 0 -10.1 -10.1 0 -227.44z"/>
  <path class="fil0" d="M2021.09 1515.23l65.36 -65.35 0 -305.57 -65.36 -65.34 -173.19 0 -65.35 65.35 0 305.57 65.35 65.35 173.19 -0 0 -0.01zm-144.23 -331.85l10.1 -10.1 95.07 0 10.1 10.1 0 227.44 -10.1 10.1 -95.07 -0 -10.1 -10.1 0 -227.43z"/>
  <path class="fil0" d="M2686.26 1078.96l-65.35 65.35 0 305.58 65.35 65.35 173.21 -0 65.35 -65.35 0 -305.58 -65.36 -65.35 -173.2 0zm144.24 331.85l-10.1 10.1 -95.08 0 -10.1 -10.1 0 -227.44 10.1 -10.1 95.08 0 10.1 10.1 0 227.43z"/>
  <path class="fil0" d="M2649.86 979.26l65.36 -65.35 0 -305.56 -65.36 -65.35 -173.2 0 -65.35 65.35 0 305.57 65.35 65.35 173.19 -0 0 0zm-144.23 -331.85l10.1 -10.1 95.07 0 10.1 10.1 0 227.44 -10.1 10.1 -95.07 0 -10.1 -10.1 0 -227.44z"/>
  <rect class="fil0" x="2201.75" y="2776.01" width="94.31" height="436.3"/>
  <path class="fil0" d="M1847.91 2776.01l-65.35 65.35 0 305.57 65.35 65.35 173.2 0 65.36 -65.35 0 -305.57 -65.37 -65.35 -173.19 0zm144.23 331.85l-10.1 10.1 -95.07 0 -10.1 -10.1 0 -227.44 10.1 -10.1 95.07 0 10.1 10.1 0 227.44z"/>
  <rect class="fil0" x="3040.09" y="1701.07" width="94.31" height="436.3"/>
  <rect class="fil0" x="2411.32" y="1701.07" width="94.31" height="436.3"/>
  <rect class="fil0" x="2830.52" y="2240.05" width="94.31" height="436.3"/>
  <path class="fil0" d="M1847.91 2240.03l-65.35 65.35 0 305.57 65.35 65.35 173.2 0 65.36 -65.35 0 -305.57 -65.36 -65.35 -173.2 0zm144.23 331.85l-10.1 10.1 -95.07 0 -10.1 -10.1 0 -227.44 10.1 -10.1 95.07 0 10.1 10.1 0 227.44z"/>
  <path class="fil0" d="M2686.26 1704.06l-65.35 65.35 0 305.58 65.35 65.35 173.21 0 65.35 -65.35 0 -305.58 -65.35 -65.35 -173.21 0zm144.24 331.85l-10.1 10.1 -95.08 0 -10.1 -10.1 0 -227.44 10.1 -10.1 95.08 0 10.1 10.1 0 227.44z"/>
  <path class="fil0" d="M2057.5 1704.06l-65.35 65.35 0 305.58 65.35 65.35 173.21 0 65.35 -65.35 0 -305.58 -65.35 -65.35 -173.21 0zm144.24 331.85l-10.1 10.1 -95.07 0 -10.1 -10.1 0 -227.44 10.1 -10.1 95.07 0 10.1 10.1 0 227.44z"/>
  <path class="fil0" d="M2476.67 2240.03l-65.35 65.35 0 305.57 65.35 65.35 173.2 0 65.36 -65.35 0 -305.57 -65.36 -65.35 -173.2 0zm144.23 331.85l-10.1 10.1 -95.07 0 -10.1 -10.1 0 -227.44 10.1 -10.1 95.07 0 10.1 10.1 0 227.44z"/>
  <rect class="fil0" x="1394.79" y="2455.46" width="94.31" height="347.33"/>
 </g>
</svg>
