<svg xmlns="http://www.w3.org/2000/svg" xmlns:xlink="http://www.w3.org/1999/xlink" style="margin:auto;background:transparent;display:block;" width="257px" height="257px" viewBox="0 0 100 100" preserveAspectRatio="xMidYMid">
<g transform="translate(50 50) scale(1.2)">
<g>
<animateTransform attributeName="transform" type="rotate" values="0;45" keyTimes="0;1" dur="0.3921568627450981s" repeatCount="indefinite"></animateTransform><path d="M30.310889132455355 -6.5 L39.31088913245536 -6.5 L39.31088913245536 6.5 L30.310889132455355 6.5 A31 31 0 0 1 26.029229327065366 16.83684117164025 L26.029229327065366 16.83684117164025 L32.393190357744295 23.200802202319178 L23.200802202319178 32.393190357744295 L16.83684117164025 26.029229327065366 A31 31 0 0 1 6.499999999999999 30.310889132455355 L6.499999999999999 30.310889132455355 L6.5 39.31088913245536 L-6.499999999999995 39.31088913245536 L-6.499999999999996 30.310889132455355 A31 31 0 0 1 -16.83684117164025 26.029229327065366 L-16.83684117164025 26.029229327065366 L-23.200802202319174 32.393190357744295 L-32.39319035774429 23.200802202319185 L-26.029229327065362 16.836841171640256 A31 31 0 0 1 -30.310889132455355 6.500000000000001 L-30.310889132455355 6.500000000000001 L-39.31088913245536 6.500000000000002 L-39.31088913245536 -6.499999999999994 L-30.310889132455355 -6.499999999999995 A31 31 0 0 1 -26.029229327065366 -16.83684117164025 L-26.029229327065366 -16.83684117164025 L-32.393190357744295 -23.200802202319178 L-23.200802202319174 -32.393190357744295 L-16.836841171640245 -26.02922932706537 A31 31 0 0 1 -6.500000000000017 -30.31088913245535 L-6.500000000000017 -30.31088913245535 L-6.500000000000019 -39.31088913245535 L6.5000000000000036 -39.31088913245536 L6.500000000000005 -30.310889132455355 A31 31 0 0 1 16.836841171640234 -26.029229327065377 L16.836841171640234 -26.029229327065377 L23.20080220231916 -32.3931903577443 L32.393190357744295 -23.200802202319174 L26.02922932706537 -16.836841171640245 A31 31 0 0 1 30.31088913245535 -6.500000000000019 M0 -20A20 20 0 1 0 0 20 A20 20 0 1 0 0 -20" fill="#d3d3d3"></path></g></g>
</svg>