<?xml version="1.0" encoding="UTF-8"?>
<!DOCTYPE svg PUBLIC "-//W3C//DTD SVG 1.1//EN" "http://www.w3.org/Graphics/SVG/1.1/DTD/svg11.dtd">
<!-- Creator: CorelDRAW -->
<svg xmlns="http://www.w3.org/2000/svg" xml:space="preserve" width="26.6686mm" height="23.416mm" version="1.1" style="shape-rendering:geometricPrecision; text-rendering:geometricPrecision; image-rendering:optimizeQuality; fill-rule:evenodd; clip-rule:evenodd"
viewBox="0 0 2666.86 2341.6"
 xmlns:xlink="http://www.w3.org/1999/xlink"
 xmlns:xodm="http://www.corel.com/coreldraw/odm/2003">
 <defs>
  <style type="text/css">
   <![CDATA[
    .fil0 {fill:#E31E24}
    .fil1 {fill:#B3B3B3;fill-rule:nonzero}
    .fil2 {fill:white;fill-rule:nonzero}
   ]]>
  </style>
 </defs>
 <g id="Layer_x0020_1">
  <metadata id="CorelCorpID_0Corel-Layer"/>
  <rect class="fil0" x="196.1" y="233.11" width="2291.88" height="1925.55"/>
  <path class="fil1" d="M498.73 0l1669.4 0c281.83,0 498.73,216.72 498.73,498.74l0 1344.13c0,281.83 -216.72,498.73 -498.73,498.73l-1669.4 0c-281.83,0 -498.73,-216.72 -498.73,-498.73l0 -1344.13c0,-281.84 216.72,-498.74 498.73,-498.74l0 0zm1842.88 1843.09c0,-455.29 0,-888.91 0,-1344.18 0,-86.73 -65.11,-173.46 -173.47,-173.46 -693.79,0 -997.24,0 -1669.4,0 -86.73,0 -173.46,65.1 -173.46,173.46l0 1344.18 0 0c0,86.7 65.1,173.43 173.46,173.43 585.43,0 1083.97,0 1669.4,0 86.73,0 173.47,-65.1 173.47,-173.43l0 0z"/>
  <polygon class="fil2" points="1322.74,1768.11 1322.74,1549.59 2081.43,1549.59 2081.43,1768.11 "/>
  <path class="fil2" d="M1552.06 1095.05c0,17.4 -0.68,32.4 -2.06,45.05 -1.35,12.61 -3.07,23.2 -5.46,32.07 -2.4,8.53 -5.47,15.38 -8.87,20.47 -3.74,4.78 -7.86,8.56 -12.65,10.58l-766.86 380.2c-9.2,4.79 -17.06,6.85 -23.91,6.17 -6.81,-0.71 -12.27,-4.45 -16.35,-11.26 -4.45,-6.51 -7.52,-16.39 -9.24,-29.37 -1.69,-12.95 -2.4,-29.67 -2.4,-49.47 0,-27.3 0.38,-49.16 1.39,-65.22 1.01,-16.01 3.07,-28.66 5.46,-37.86 2.73,-9.54 6.47,-16.39 11.26,-20.47 4.42,-4.45 10.93,-8.19 18.79,-11.61l575.4 -270.34 -564.52 -262.1c-10.55,-4.75 -19.08,-9.21 -25.25,-14 -6.47,-4.75 -11.26,-11.93 -14.67,-21.47 -3.07,-9.92 -5.46,-22.87 -6.47,-39.25 -1.01,-16.39 -1.39,-38.58 -1.39,-66.58 0,-24.58 0.71,-44.04 2.4,-58.03 1.72,-14 4.79,-23.88 9.24,-30.01 4.08,-6.14 9.54,-8.53 16.35,-7.86 6.85,0.34 14.71,3.07 23.91,7.86l767.91 383.26c8.53,4.08 15.34,14.67 20.47,32.07 5.12,17.43 7.52,43.03 7.52,77.15l0 0.02z"/>
 </g>
</svg>
