<?xml version="1.0" encoding="UTF-8"?>
<!DOCTYPE svg PUBLIC "-//W3C//DTD SVG 1.1//EN" "http://www.w3.org/Graphics/SVG/1.1/DTD/svg11.dtd">
<!-- Creator: CorelDRAW 2020 (64-Bit) -->
<svg xmlns="http://www.w3.org/2000/svg" xml:space="preserve" width="26.6686mm" height="23.416mm" version="1.1" style="shape-rendering:geometricPrecision; text-rendering:geometricPrecision; image-rendering:optimizeQuality; fill-rule:evenodd; clip-rule:evenodd"
viewBox="0 0 2592.15 2276"
 xmlns:xlink="http://www.w3.org/1999/xlink"
 xmlns:xodm="http://www.corel.com/coreldraw/odm/2003">
 <defs>
  <style type="text/css">
   <![CDATA[
    .fil0 {fill:#333333}
    .fil1 {fill:#B3B3B3;fill-rule:nonzero}
    .fil2 {fill:white;fill-rule:nonzero}
   ]]>
  </style>
 </defs>
 <g id="Layer_x0020_1">
  <metadata id="CorelCorpID_0Corel-Layer"/>
  <rect class="fil0" x="190.61" y="226.58" width="2227.67" height="1871.61"/>
  <path class="fil1" d="M484.76 0l1622.63 0c273.93,0 484.76,210.65 484.76,484.77l0 1306.48c0,273.93 -210.65,484.76 -484.76,484.76l-1622.63 0c-273.93,0 -484.76,-210.65 -484.76,-484.76l0 -1306.48c0,-273.94 210.65,-484.77 484.76,-484.77l0 0zm1791.25 1791.46c0,-442.54 0,-864.01 0,-1306.52 0,-84.3 -63.29,-168.6 -168.61,-168.6 -674.35,0 -969.3,0 -1622.63,0 -84.3,0 -168.6,63.28 -168.6,168.6l0 1306.52 0 0c0,84.27 63.28,168.57 168.6,168.57 569.03,0 1053.6,0 1622.63,0 84.3,0 168.61,-63.28 168.61,-168.57l0 0z"/>
  <g id="two-settings-cogwheels.svg">
   <path class="fil2" d="M1320.7 1317.9l-43.64 -96.86c41.6,-30.54 77.33,-68.53 105.25,-111.88l99.35 37.65c19,7.2 40.23,-2.37 47.42,-21.36l36.52 -96.38c3.45,-9.12 3.15,-19.24 -0.87,-28.13 -4,-8.89 -11.38,-15.83 -20.51,-19.28l-99.35 -37.65c7.82,-50.97 6.23,-103.08 -4.68,-153.52l96.86 -43.63c8.89,-4.01 15.83,-11.38 19.29,-20.51 3.45,-9.12 3.15,-19.25 -0.87,-28.14l-42.33 -93.96c-8.34,-18.53 -30.13,-26.76 -48.64,-18.43l-96.87 43.63c-30.53,-41.59 -68.52,-77.32 -111.87,-105.24l37.65 -99.36c7.19,-18.99 -2.37,-40.22 -21.36,-47.41l-96.37 -36.53c-9.12,-3.45 -19.24,-3.15 -28.14,0.87 -8.89,4 -15.82,11.37 -19.28,20.51l-37.64 99.34c-51.03,-7.86 -103.23,-6.24 -153.54,4.68l-43.62 -96.86c-4,-8.89 -11.38,-15.83 -20.51,-19.29 -9.11,-3.45 -19.24,-3.15 -28.13,0.87l-93.98 42.33c-18.52,8.34 -26.77,30.11 -18.43,48.64l43.64 96.87c-41.6,30.53 -77.33,68.52 -105.25,111.87l-99.35 -37.65c-9.12,-3.45 -19.24,-3.14 -28.14,0.87 -8.89,4 -15.82,11.37 -19.28,20.51l-36.52 96.37c-7.19,18.99 2.37,40.23 21.36,47.42l99.36 37.65c-7.83,50.96 -6.24,103.09 4.68,153.52l-96.88 43.63c-8.89,4.01 -15.82,11.38 -19.28,20.51 -3.46,9.13 -3.15,19.25 0.86,28.14l42.34 93.97c3.99,8.88 11.37,15.82 20.5,19.28 9.13,3.46 19.25,3.15 28.13,-0.87l96.87 -43.63c30.54,41.6 68.52,77.32 111.88,105.24l-37.65 99.36c-7.19,18.99 2.36,40.23 21.35,47.42l96.38 36.51c4.21,1.59 8.62,2.39 13.03,2.39 5.15,0 10.31,-1.09 15.1,-3.25 8.89,-4.01 15.83,-11.38 19.28,-20.51l37.65 -99.35c51.02,7.86 103.23,6.25 153.53,-4.68l43.62 96.86c4.01,8.89 11.38,15.83 20.51,19.28 9.13,3.46 19.26,3.16 28.14,-0.86l93.96 -42.33c18.54,-8.34 26.79,-30.11 18.45,-48.64zm-60.95 -349.6c-36.51,96.36 -130.24,161.1 -233.24,161.1 -30.13,0 -59.85,-5.47 -88.31,-16.26 -62.29,-23.59 -111.66,-70.03 -139.01,-130.77 -27.36,-60.73 -29.43,-128.49 -5.83,-190.77 36.51,-96.36 130.24,-161.1 233.24,-161.1 30.13,0 59.85,5.47 88.31,16.26 62.29,23.59 111.66,70.04 139.02,130.76 27.36,60.74 29.43,128.5 5.82,190.78zm817.72 502.22c-6.59,-7.18 -15.78,-11.46 -25.51,-11.88l-69.27 -2.97c-6.39,-32.7 -17.9,-64.26 -34.09,-93.4l51.09 -46.88c14.97,-13.73 15.96,-37 2.24,-51.96l-50.73 -55.27c-6.59,-7.19 -15.78,-11.46 -25.52,-11.88 -9.73,-0.37 -19.26,3.05 -26.45,9.64l-51.08 46.89c-27.64,-18.61 -58.11,-32.79 -90.13,-41.94l2.97 -69.27c0.87,-20.3 -14.88,-37.45 -35.18,-38.32l-74.95 -3.22c-20.19,-0.77 -37.45,14.88 -38.32,35.17l-2.97 69.27c-32.69,6.38 -64.25,17.9 -93.39,34.08l-46.89 -51.09c-6.59,-7.18 -15.78,-11.46 -25.51,-11.88 -9.74,-0.4 -19.26,3.05 -26.45,9.65l-55.27 50.72c-14.97,13.73 -15.96,37 -2.23,51.96l46.88 51.09c-18.61,27.64 -32.79,58.1 -41.94,90.13l-69.26 -2.97c-20.21,-0.82 -37.46,14.88 -38.33,35.18l-3.22 74.94c-0.42,9.75 3.05,19.26 9.65,26.45 6.59,7.18 15.78,11.46 25.52,11.88l69.26 2.96c6.39,32.7 17.9,64.26 34.08,93.4l-51.08 46.89c-7.19,6.59 -11.46,15.78 -11.88,25.51 -0.43,9.75 3.05,19.26 9.64,26.45l50.73 55.27c6.59,7.19 15.78,11.46 25.52,11.88 9.7,0.39 19.26,-3.05 26.45,-9.64l51.08 -46.89c27.64,18.61 58.11,32.79 90.13,41.94l-2.97 69.27c-0.87,20.3 14.87,37.45 35.17,38.32l74.95 3.22c0.53,0.02 1.05,0.03 1.57,0.03 9.19,0 18.07,-3.44 24.87,-9.68 7.18,-6.59 11.46,-15.78 11.88,-25.51l2.97 -69.27c32.69,-6.39 64.25,-17.9 93.39,-34.08l46.89 51.09c6.59,7.18 15.78,11.46 25.51,11.88 9.79,0.43 19.26,-3.06 26.45,-9.65l55.27 -50.72c14.97,-13.73 15.96,-37 2.23,-51.96l-46.88 -51.09c18.61,-27.65 32.79,-58.11 41.94,-90.13l69.26 2.96c20.28,0.79 37.45,-14.87 38.33,-35.17l3.22 -74.94c0.42,-9.75 -3.05,-19.26 -9.65,-26.45zm-414.28 217.46c-94.48,-4.04 -168.05,-84.2 -163.99,-178.68 3.95,-92.06 79.14,-164.16 171.19,-164.16 2.49,0 4.99,0.05 7.49,0.16 94.48,4.05 168.05,84.21 163.99,178.69 -4.04,94.55 -83.43,168 -178.68,163.99z"/>
  </g>
 </g>
</svg>
